<svg width="22" height="22" viewBox="0 0 22 22" fill="none" xmlns="http://www.w3.org/2000/svg">
<path d="M11 0C4.9346 0 0 4.9346 0 11C0 17.0665 4.9346 22 11 22C13.2429 22 15.3923 21.3378 17.2172 20.0849L15.9731 18.2721C14.5145 19.2709 12.7963 19.8 11 19.8C6.1479 19.8 2.2 15.8521 2.2 11C2.2 6.1479 6.1479 2.2 11 2.2C15.8521 2.2 19.8 6.1479 19.8 11V11.8602C19.8 13.387 19.1422 14.3 18.04 14.3L18.0378 14.3198C17.9718 14.3055 17.9003 14.3 17.8299 14.3H17.6C16.9807 14.3 16.06 13.4002 16.06 12.7941V11C16.06 8.2104 13.7907 5.94 11 5.94C8.2093 5.94 5.94 8.2093 5.94 11C5.94 13.7907 8.2093 16.06 11 16.06C12.3574 16.06 13.585 15.5166 14.4947 14.6443C15.2086 15.6959 16.423 16.5 17.6 16.5L17.6022 16.4791C17.6704 16.4934 17.7419 16.5 17.8145 16.5H18.04C20.4072 16.5 22 14.6366 22 11.8602V11C22 4.9346 17.0654 0 11 0ZM11 13.8589C9.4226 13.8589 8.14 12.5763 8.14 10.9989C8.14 9.4215 9.4226 8.1389 11 8.1389C12.5774 8.1389 13.86 9.4215 13.86 10.9989C13.86 12.5763 12.5774 13.8589 11 13.8589Z" fill="#72767D"/>
</svg>
