<svg width="22" height="22" viewBox="0 0 22 22" fill="none" xmlns="http://www.w3.org/2000/svg">
<path d="M17.6683 10.9975C18.5992 12.222 19.3732 13.4345 19.9422 14.5716C21.5858 17.8612 21.0118 19.4708 20.2418 20.2419C19.895 20.5868 19.2596 21 18.1951 21C16.3645 21 13.7478 19.7574 11.0004 17.6701C8.25199 19.7574 5.63528 21 3.80569 21C2.74111 21 2.10478 20.5868 1.75896 20.2419C0.987922 19.4697 0.413921 17.8612 2.05853 14.5716C2.62751 13.4345 3.40257 12.223 4.33246 10.9975C1.51569 7.2836 0.00176078 3.51747 1.75896 1.75906C2.10578 1.41321 2.74111 1 3.80569 1C5.63629 1 8.25299 2.24265 11.0004 4.32981C13.7488 2.24265 16.3655 1 18.1951 1C19.2596 1 19.895 1.41221 20.2418 1.75906C21.999 3.51646 20.4851 7.2826 17.6683 10.9975ZM18.8203 3.18066C18.6806 3.03991 18.4032 3.01075 18.1951 3.01075C17.0481 3.01075 14.9933 3.92062 12.6209 5.64886C14.0262 6.86536 15.2346 8.0859 16.3655 9.39592C18.752 6.13244 19.3541 3.71452 18.8203 3.18066ZM13.1325 13.1329C13.8654 12.4 14.5108 11.6902 15.0928 11.0035C14.4876 10.2866 13.8342 9.56984 13.1325 8.86707C12.4128 8.14823 11.701 7.51384 11.0004 6.92267C10.2997 7.51384 9.58801 8.14823 8.86822 8.86707C8.16654 9.56984 7.51312 10.2866 6.90795 11.0035C7.49 11.6902 8.13638 12.4 8.86822 13.1329C9.58801 13.8527 10.2997 14.4871 11.0004 15.0762C11.701 14.4871 12.4128 13.8527 13.1325 13.1329ZM3.80569 3.01075C3.5986 3.01075 3.32115 3.03991 3.18142 3.18066C2.64661 3.71452 3.24977 6.13144 5.63629 9.39492C6.83557 8.00546 8.05697 6.79499 9.37991 5.64786C7.00646 3.92062 4.9527 3.01075 3.80569 3.01075ZM3.18041 18.8203C3.32014 18.9601 3.5976 18.9892 3.80569 18.9892C4.9527 18.9892 7.00747 18.0804 9.37991 16.3531C7.98358 15.1437 6.78731 13.9362 5.64131 12.6091C4.92054 13.5944 4.31133 14.5615 3.85695 15.4704C2.79539 17.5927 2.9502 18.59 3.18041 18.8203ZM18.1941 18.9892C18.4021 18.9892 18.6796 18.9601 18.8193 18.8203C19.0495 18.59 19.2044 17.5937 18.1428 15.4704C17.6884 14.5605 17.0792 13.5934 16.3584 12.6091C15.2114 13.9372 14.0152 15.1447 12.6199 16.3531C14.9933 18.0804 17.0471 18.9892 18.1941 18.9892ZM13.0109 10.9995C13.0109 12.11 12.1108 13.0102 11.0004 13.0102C9.89001 13.0102 8.98985 12.11 8.98985 10.9995C8.98985 9.88898 9.89001 8.98872 11.0004 8.98872C12.1108 8.98872 13.0109 9.88898 13.0109 10.9995Z" fill="#B9BBBE"/>
</svg>
