<svg width="20" height="14" viewBox="0 0 20 14" fill="none" xmlns="http://www.w3.org/2000/svg">
<path d="M3.66367 0H16.3363C17.9093 0 19.2153 1.21463 19.329 2.78329L19.995 11.9774C20.0703 13.0165 19.2887 13.9198 18.2496 13.9951C18.2041 13.9984 18.1587 14 18.1132 14C16.9203 14 15.8796 13.1904 15.5866 12.0342L15.0708 10H4.92919L4.41343 12.0342C4.12031 13.1904 3.07963 14 1.88673 14C0.844719 14 0 13.1554 0 12.1136C0 12.0682 0.00165033 12.0227 0.00493095 11.9774L0.670947 2.78329C0.784578 1.21463 2.0906 0 3.66367 0ZM12.5005 5C13.329 5 14.0008 4.32843 14.0008 3.5C14.0008 2.67157 13.329 2 12.5005 2C11.6719 2 11.0002 2.67157 11.0002 3.5C11.0002 4.32843 11.6719 5 12.5005 5ZM16.5012 8C17.3298 8 18.0015 7.3284 18.0015 6.5C18.0015 5.6716 17.3298 5 16.5012 5C15.6727 5 15.0009 5.6716 15.0009 6.5C15.0009 7.3284 15.6727 8 16.5012 8ZM3.99887 4H1.9985V6H3.99887V8H5.99925V6H7.99962V4H5.99925V2H3.99887V4Z" fill="#B9BBBE"/>
</svg>
