<svg width="22" height="22" viewBox="0 0 22 22" fill="none" xmlns="http://www.w3.org/2000/svg">
<path d="M21.4471 7.10554L11.447 2.10575C11.166 1.96475 10.834 1.96475 10.552 2.10575L0.552002 7.10554C0.350001 7.20554 0.197001 7.37953 0.107 7.56852C0.0460001 7.69052 0 7.89751 0 8.00051V13.7653C0 14.3172 0.448001 14.7652 1 14.7652C1.552 14.7652 2.00001 14.3172 2.00001 13.7653V9.16744L11.015 12.9223L21.3721 8.92847C21.7371 8.78148 21.9831 8.43549 21.9991 8.0415C22.0161 7.64752 21.7991 7.28254 21.4471 7.10554ZM11 15.0002C10.869 15.0002 10.738 14.9742 10.615 14.9232L4.00001 12.1673V15.1802C4.00001 15.5592 4.21401 15.9052 4.55301 16.0752C4.71731 16.1573 4.8821 16.2413 5.04838 16.3259C6.61775 17.1257 8.31999 17.9931 11 17.9931C13.6812 17.9931 15.3872 17.1235 16.9561 16.3238C17.1209 16.2399 17.2843 16.1566 17.4471 16.0752C17.7861 15.9062 18.0001 15.5592 18.0001 15.1812V12.3803L11.359 14.9342C11.243 14.9772 11.122 15.0002 11 15.0002ZM0 17.0001C0 16.4481 0.448001 16.0002 1 16.0002C1.552 16.0002 2.00001 16.4481 2.00001 17.0001V19C2.00001 19.552 1.552 20 1 20C0.448001 20 0 19.552 0 19V17.0001Z" fill="#B9BBBE"/>
</svg>
