<svg width="22" height="22" viewBox="0 0 22 22" fill="none" xmlns="http://www.w3.org/2000/svg">
<path d="M18.396 2.29611C18.016 2.01311 17.524 1.92811 17.07 2.06211L7.07 5.06209C6.435 5.25209 6 5.83708 6 6.50008V14.051C5.835 14.027 5.671 14 5.5 14C3.566 14 2 15.568 2 17.5C2 19.431 3.566 21 5.5 21C7.434 21 9 19.431 9 17.5V7.61507L16 5.51508V12.0511C15.835 12.0271 15.671 12.0001 15.5 12.0001C13.566 12.0001 12 13.5681 12 15.5C12 17.431 13.566 19 15.5 19C17.434 19 19 17.431 19 15.5V3.5001C19 3.0241 18.775 2.5791 18.396 2.29611Z" fill="#B9BBBE"/>
</svg>
