<svg width="22" height="22" viewBox="0 0 22 22" fill="none" xmlns="http://www.w3.org/2000/svg">
<path d="M11 1C9.61933 1 8.50004 2.11928 8.50004 3.49997C8.50004 3.517 8.5002 3.53398 8.50054 3.55092C8.52234 4.64117 9.25909 5.56561 10.2483 5.88495L11.7483 5.88605C12.7572 5.56429 13.5 4.61554 13.5 3.49997C13.5 2.11928 12.3807 1 11 1Z" fill="#B9BBBE"/>
<path d="M4.24835 12.9999C4.24835 12.3095 4.80799 11.7499 5.49835 11.7499H10.2483V16.1151C9.23492 16.4342 8.50004 17.3813 8.50004 18.5C8.50004 19.8807 9.61933 21 11 21C12.3807 21 13.5 19.8807 13.5 18.5C13.5 17.38 12.7635 16.432 11.7483 16.114V11.7499H16.4983C17.1887 11.7499 17.7483 12.3095 17.7483 12.9999V16.115C16.7349 16.4341 16 17.3813 16 18.5C16 19.8807 17.1193 21 18.5 21C19.8807 21 21 19.8807 21 18.5C21 17.38 20.2635 16.432 19.2483 16.114V12.9999C19.2483 11.4812 18.0171 10.25 16.4983 10.25H11.7483V5.88605L10.2483 5.88495V10.25H5.49835C3.97957 10.25 2.74836 11.4812 2.74836 12.9999V16.115C1.73493 16.4341 1 17.3812 1 18.5C1 19.8807 2.11929 21 3.5 21C4.88071 21 5.99999 19.8807 5.99999 18.5C5.99999 17.38 5.26348 16.432 4.24835 16.114V12.9999Z" fill="#B9BBBE"/>
</svg>
