<svg width="16" height="17" viewBox="0 0 16 17" fill="none" xmlns="http://www.w3.org/2000/svg">
<path fill-rule="evenodd" clip-rule="evenodd" d="M14.1904 6.9H16V10.1H14.1912C13.9984 10.8448 13.68 11.5384 13.252 12.1512L14.4 13.3L12.8 14.9L11.652 13.7512C11.0376 14.1792 10.3456 14.4984 9.6 14.6904V16.5H6.4V14.6904C5.6552 14.4984 4.9624 14.1792 4.3488 13.7512L3.2 14.9L1.6 13.3L2.7488 12.1512C2.3208 11.5392 2.0016 10.8456 1.8096 10.1H0V6.9H1.8096C2.0016 6.1544 2.32 5.4616 2.7488 4.8488L1.6 3.7L3.2 2.1L4.3488 3.2488C4.9616 2.82 5.6544 2.5016 6.4 2.3096V0.5H9.6V2.3088C10.3456 2.5016 11.0376 2.82 11.652 3.248L12.8 2.0992L14.4 3.6992L13.2512 4.8488C13.6792 5.4616 13.9984 6.1552 14.1904 6.9ZM8 11.7C9.76728 11.7 11.2 10.2673 11.2 8.5C11.2 6.73269 9.76728 5.3 8 5.3C6.23269 5.3 4.8 6.73269 4.8 8.5C4.8 10.2673 6.23269 11.7 8 11.7Z" fill="#C7C9CB"/>
</svg>
