<svg
                      version="1.1"
                      xmlns="http://www.w3.org/2000/svg"
                      x="0px"
                      y="0px"
                      width="24"
                      height="24"
                      viewBox="0 0 24 24"
                      fill="#ffffff"
                      className="text-center w-full"
                    >
                      <g id="Frame_-_24px">
                        <rect y="0" fill="none" width="24" height="24"></rect>
                      </g>
                      <g id="Filled_Icons">
                        <g>
                          <path
                            fill="#ffffff"
                            d="M6.351,6.351C7.824,4.871,9.828,4,12,4c4.411,0,8,3.589,8,8h2c0-5.515-4.486-10-10-10 C9.285,2,6.779,3.089,4.938,4.938L3,3v6h6L6.351,6.351z"
                          ></path>
                          <path
                            fill="#ffffff"
                            d="M17.649,17.649C16.176,19.129,14.173,20,12,20c-4.411,0-8-3.589-8-8H2c0,5.515,4.486,10,10,10 c2.716,0,5.221-1.089,7.062-2.938L21,21v-6h-6L17.649,17.649z"
                          ></path>
                        </g>
                      </g>
                    </svg>