<svg width="22" height="22" viewBox="0 0 22 22" fill="none" xmlns="http://www.w3.org/2000/svg">
<path d="M15.781 1.27293L13.081 4.7126H8.919L6.219 1.27293L7.781 0L11 4.10008L14.219 0L15.781 1.27293ZM3 5.73175H19C20.1 5.73175 21 6.649 21 7.77007V17.9617C21 19.0828 20.1 20 19 20H3C1.9 20 1 19.0828 1 17.9617V7.77007C1 6.649 1.9 5.73175 3 5.73175ZM3 17.9617H15V7.77007H3V17.9617ZM17 15.4138C17 15.9764 17.448 16.4329 18 16.4329C18.552 16.4329 19 15.9764 19 15.4138C19 14.8512 18.552 14.3946 18 14.3946C17.448 14.3946 17 14.8512 17 15.4138ZM17 10.318C17 10.8806 17.448 11.3371 18 11.3371C18.552 11.3371 19 10.8806 19 10.318C19 9.7554 18.552 9.2988 18 9.2988C17.448 9.2988 17 9.7554 17 10.318Z" fill="#B9BBBE"/>
</svg>
