<svg width="97" height="74" viewBox="0 0 97 74" fill="none" xmlns="http://www.w3.org/2000/svg">
<path d="M81.9575 6.23131C75.8219 3.41609 69.2425 1.34191 62.3632 0.153944C62.238 0.131025 62.1128 0.188323 62.0483 0.302918C61.2021 1.80793 60.2649 3.77133 59.6085 5.31455C52.2094 4.20679 44.8483 4.20679 37.601 5.31455C36.9445 3.73695 35.9732 1.80793 35.1232 0.302918C35.0587 0.192142 34.9335 0.134845 34.8083 0.153944C27.9329 1.33809 21.3534 3.41227 15.214 6.23131C15.1609 6.25423 15.1154 6.29242 15.085 6.34208C2.60526 24.9867 -0.813491 43.173 0.863632 61.1338C0.871221 61.2217 0.920548 61.3057 0.988847 61.3592C9.22269 67.406 17.1985 71.0769 25.0264 73.5101C25.1516 73.5483 25.2844 73.5025 25.3641 73.3993C27.2157 70.8706 28.8663 68.2044 30.2816 65.4006C30.3651 65.2364 30.2854 65.0415 30.1146 64.9766C27.4965 63.9834 25.0036 62.7726 22.6055 61.3974C22.4158 61.2866 22.4006 61.0154 22.5752 60.8856C23.0798 60.5074 23.5845 60.1139 24.0664 59.7167C24.1536 59.6441 24.2751 59.6288 24.3775 59.6747C40.1318 66.8674 57.1877 66.8674 72.7561 59.6747C72.8585 59.625 72.9799 59.6403 73.071 59.7129C73.5529 60.1101 74.0575 60.5074 74.566 60.8856C74.7405 61.0154 74.7291 61.2866 74.5394 61.3974C72.1414 62.7993 69.6485 63.9834 67.0265 64.9728C66.8558 65.0377 66.7799 65.2364 66.8634 65.4006C68.309 68.2005 69.9596 70.8668 71.7771 73.3955C71.853 73.5025 71.9896 73.5483 72.1148 73.5101C79.9806 71.0769 87.9564 67.406 96.1903 61.3592C96.2623 61.3057 96.3079 61.2255 96.3155 61.1377C98.3227 40.373 92.9536 22.3357 82.0827 6.3459C82.0561 6.29242 82.0106 6.25423 81.9575 6.23131ZM32.6341 50.1977C27.8911 50.1977 23.9829 45.843 23.9829 40.4953C23.9829 35.1475 27.8152 30.7929 32.6341 30.7929C37.4909 30.7929 41.3612 35.1857 41.2853 40.4953C41.2853 45.843 37.453 50.1977 32.6341 50.1977ZM64.6209 50.1977C59.8779 50.1977 55.9697 45.843 55.9697 40.4953C55.9697 35.1475 59.802 30.7929 64.6209 30.7929C69.4777 30.7929 73.348 35.1857 73.2721 40.4953C73.2721 45.843 69.4777 50.1977 64.6209 50.1977Z" fill="white"/>
</svg>
